<svg width="100" height="100" viewBox="0 0 100 100" fill="none" xmlns="http://www.w3.org/2000/svg">
<g clip-path="url(#clip0_226_16)">
<path opacity="0.997" fill-rule="evenodd" clip-rule="evenodd" d="M47.5 -0.5C48.5 -0.5 49.5 -0.5 50.5 -0.5C48.4693 5.86116 48.136 12.1945 49.5 18.5C49.3284 19.4916 49.6618 20.1583 50.5 20.5C52.1016 22.0739 54.1016 22.7406 56.5 22.5C57.5676 23.4345 58.901 23.7678 60.5 23.5C63.6777 25.0086 67.0111 26.342 70.5 27.5C77.0915 32.6189 79.0915 39.2856 76.5 47.5C75.5655 48.5676 75.2322 49.901 75.5 51.5C74.596 52.209 74.2627 53.209 74.5 54.5C72.9802 56.8902 71.9802 59.5568 71.5 62.5C70.6618 62.8417 70.3284 63.5084 70.5 64.5C69.6618 64.8417 69.3284 65.5084 69.5 66.5C68.6618 66.8417 68.3284 67.5084 68.5 68.5C67.6618 68.8417 67.3284 69.5084 67.5 70.5C65.659 72.8485 64.3257 75.5152 63.5 78.5C62.6618 78.8417 62.3284 79.5084 62.5 80.5C61.6618 80.8417 61.3284 81.5084 61.5 82.5C60.8333 82.5 60.5 82.8333 60.5 83.5C59.6618 83.8417 59.3284 84.5084 59.5 85.5C58.6618 85.8417 58.3284 86.5084 58.5 87.5C56.412 89.3356 55.0787 91.6689 54.5 94.5C53.8333 94.5 53.5 94.8333 53.5 95.5C52.6618 95.8417 52.3284 96.5084 52.5 97.5C51.5 97.8333 50.8333 98.5 50.5 99.5C49.5 99.5 48.5 99.5 47.5 99.5C47.573 97.9731 46.9063 96.9731 45.5 96.5C44.3307 93.4887 42.664 90.822 40.5 88.5C40.5 87.8333 40.1667 87.5 39.5 87.5C39.6716 86.5084 39.3382 85.8417 38.5 85.5C37.8897 83.5659 36.8897 81.8993 35.5 80.5C34.9213 77.6689 33.588 75.3356 31.5 73.5C31.6716 72.5084 31.3382 71.8417 30.5 71.5C30.6716 70.5084 30.3382 69.8417 29.5 69.5C29.6716 68.5084 29.3382 67.8417 28.5 67.5C28.7373 66.209 28.404 65.209 27.5 64.5C27.3404 62.847 26.6737 61.5137 25.5 60.5C25.7373 59.209 25.404 58.209 24.5 57.5C22.0782 49.6935 21.0782 41.6935 21.5 33.5C22.404 32.791 22.7373 31.791 22.5 30.5C23.3382 30.1583 23.6716 29.4916 23.5 28.5C24.3382 28.1583 24.6716 27.4916 24.5 26.5C25.3382 26.1583 25.6716 25.4916 25.5 24.5C26.1667 24.5 26.5 24.1667 26.5 23.5C28.1921 21.7952 29.5254 19.7952 30.5 17.5C31.1667 17.5 31.5 17.1667 31.5 16.5C32.1667 16.5 32.5 16.1667 32.5 15.5C37.4721 10.1929 42.4721 4.85954 47.5 -0.5ZM42.5 36.5C42.5 36.8333 42.5 37.1667 42.5 37.5C41.8333 37.5 41.5 37.8333 41.5 38.5C40.8333 38.5 40.5 38.8333 40.5 39.5C40.1667 39.5 39.8333 39.5 39.5 39.5C39.5 37.5 40.5 36.5 42.5 36.5ZM53.5 36.5C53.9731 37.9063 54.9731 38.573 56.5 38.5C56.9887 39.9952 57.6554 41.3285 58.5 42.5C58.5405 45.8806 58.2071 49.2139 57.5 52.5C56.5 52.8333 55.8333 53.5 55.5 54.5C49.4968 56.5432 44.1635 55.5432 39.5 51.5C39.162 49.146 38.662 46.8127 38 44.5C37.51 45.7932 37.3433 47.1266 37.5 48.5C36.254 45.7067 36.5873 43.04 38.5 40.5C38.3505 41.552 38.5172 42.552 39 43.5C39.4101 42.0993 39.9101 40.766 40.5 39.5C41.1667 39.5 41.5 39.1667 41.5 38.5C42.1667 38.5 42.5 38.1667 42.5 37.5C46.0991 36.6561 49.7657 36.3227 53.5 36.5ZM58.5 39.5C59.9973 41.2897 60.664 43.4563 60.5 46C60.4915 47.7067 60.1582 49.2067 59.5 50.5C59.8064 47.6146 59.4731 44.9479 58.5 42.5C58.5 41.5 58.5 40.5 58.5 39.5ZM55.5 54.5C56.1667 54.5 56.8333 54.5 57.5 54.5C57.0269 55.9063 56.0269 56.573 54.5 56.5C54.8333 55.8333 55.1667 55.1667 55.5 54.5ZM43.5 56.5C47.1667 57.8333 50.8333 57.8333 54.5 56.5C50.8333 59.1667 47.1667 59.1667 43.5 56.5Z" fill="#844F9E"/>
<path opacity="0.02" fill-rule="evenodd" clip-rule="evenodd" d="M51.5 -0.5C51.8333 -0.5 52.1667 -0.5 52.5 -0.5C51.0123 5.42322 50.5123 11.4232 51 17.5C51.6979 18.6906 52.5313 19.6906 53.5 20.5C52.5 20.5 51.5 20.5 50.5 20.5C50.6716 19.5084 50.3382 18.8417 49.5 18.5C49.3277 12.0591 49.9944 5.72575 51.5 -0.5Z" fill="#13C36A"/>
<path opacity="0.016" fill-rule="evenodd" clip-rule="evenodd" d="M32.5 15.5C31.8333 15.5 31.5 15.8333 31.5 16.5C30.8333 16.5 30.5 16.8333 30.5 17.5C29.4407 15.9301 29.9407 14.5968 32 13.5C32.4643 14.0944 32.631 14.7611 32.5 15.5Z" fill="#21CF7C"/>
<path opacity="0.027" fill-rule="evenodd" clip-rule="evenodd" d="M53.5 20.5001C56.1522 20.4096 58.4855 21.0763 60.5 22.5001C59.1667 22.5001 57.8333 22.5001 56.5 22.5001C55.5 21.8334 54.5 21.1668 53.5 20.5001Z" fill="#09CE6D"/>
<path opacity="0.018" fill-rule="evenodd" clip-rule="evenodd" d="M60.5 23.5C60.5 23.1667 60.5 22.8333 60.5 22.5C64.5 22.8333 64.5 23.1667 60.5 23.5Z" fill="#00BE5F"/>
<path opacity="0.031" fill-rule="evenodd" clip-rule="evenodd" d="M26.5 23.5C25.8333 23.5 25.5 23.8333 25.5 24.5C25.1667 24.5 24.8333 24.5 24.5 24.5C25.032 21.5404 25.6987 21.2071 26.5 23.5Z" fill="#0FC857"/>
<path opacity="0.01" fill-rule="evenodd" clip-rule="evenodd" d="M67.5 24.4999C66.448 24.6494 65.448 24.4827 64.5 23.9999C65.7494 23.2598 66.7494 23.4264 67.5 24.4999Z" fill="#196855"/>
<path opacity="0.01" fill-rule="evenodd" clip-rule="evenodd" d="M67.5 24.5C68.4916 24.3284 69.1583 24.6618 69.5 25.5C68.5084 25.6716 67.8417 25.3382 67.5 24.5Z" fill="#19A882"/>
<path opacity="0.01" fill-rule="evenodd" clip-rule="evenodd" d="M69.5 25.5C72.4596 26.032 72.7929 26.6987 70.5 27.5C70.1667 26.8333 69.8333 26.1667 69.5 25.5Z" fill="#0B9880"/>
<path opacity="0.01" fill-rule="evenodd" clip-rule="evenodd" d="M24.5 24.5C24.5 25.1667 24.5 25.8333 24.5 26.5C23.6618 26.8417 23.3284 27.5084 23.5 28.5C22.6618 28.8417 22.3284 29.5084 22.5 30.5C21.596 31.209 21.2627 32.209 21.5 33.5C21.1667 33.5 20.8333 33.5 20.5 33.5C20.5018 29.8355 21.8352 26.8355 24.5 24.5Z" fill="#2DD99B"/>
<path opacity="0.01" fill-rule="evenodd" clip-rule="evenodd" d="M20.5 33.5C20.6657 37.8461 20.499 42.1794 20 46.5C19.1864 41.9796 19.353 37.6463 20.5 33.5Z" fill="#1CBD65"/>
<path opacity="0.024" fill-rule="evenodd" clip-rule="evenodd" d="M53.5 36.5C54.1667 36.5 54.8333 36.5 55.5 36.5C55.5 37.1667 55.8333 37.5 56.5 37.5C56.5 37.8333 56.5 38.1667 56.5 38.5C54.9731 38.573 53.9731 37.9063 53.5 36.5Z" fill="#13DA6E"/>
<path opacity="0.027" fill-rule="evenodd" clip-rule="evenodd" d="M76.5 51.5C76.5 50.1667 76.5 48.8333 76.5 47.5C77.9773 43.7665 78.8106 39.7665 79 35.5C79.9431 41.2223 79.1097 46.5556 76.5 51.5Z" fill="#0FCF6D"/>
<path opacity="0.01" fill-rule="evenodd" clip-rule="evenodd" d="M22.4999 55.5C20.797 53.1488 20.297 50.4822 20.9999 47.5C21.8214 50.1168 22.3214 52.7835 22.4999 55.5Z" fill="#24CC72"/>
<path opacity="0.01" fill-rule="evenodd" clip-rule="evenodd" d="M58.5 42.5C59.4731 44.9479 59.8064 47.6146 59.5 50.5C58.6618 50.8417 58.3284 51.5084 58.5 52.5C58.1667 52.5 57.8333 52.5 57.5 52.5C58.2071 49.2139 58.5405 45.8806 58.5 42.5Z" fill="#30E799"/>
<path opacity="0.02" fill-rule="evenodd" clip-rule="evenodd" d="M75.5 51.5C75.8333 51.5 76.1667 51.5 76.5 51.5C76.7373 52.791 76.404 53.791 75.5 54.5C75.5 53.5 75.5 52.5 75.5 51.5Z" fill="#1BD592"/>
<path opacity="0.01" fill-rule="evenodd" clip-rule="evenodd" d="M57.5 52.5C57.5 53.1667 57.5 53.8333 57.5 54.5C56.8333 54.5 56.1667 54.5 55.5 54.5C55.8333 53.5 56.5 52.8333 57.5 52.5Z" fill="#227740"/>
<path opacity="0.012" fill-rule="evenodd" clip-rule="evenodd" d="M74.5 54.5C74.8333 54.5 75.1667 54.5 75.5 54.5C75.1667 58.5 74.8333 58.5 74.5 54.5Z" fill="#0BBE4B"/>
<path opacity="0.012" fill-rule="evenodd" clip-rule="evenodd" d="M39.5 51.5C44.1635 55.5432 49.4968 56.5432 55.5 54.5C55.1667 55.1667 54.8333 55.8333 54.5 56.5C50.8333 57.8333 47.1667 57.8333 43.5 56.5C43.1583 55.6618 42.4916 55.3284 41.5 55.5C41.5 54.8333 41.1667 54.5 40.5 54.5C40.5 53.8333 40.1667 53.5 39.5 53.5C39.5 52.8333 39.5 52.1667 39.5 51.5Z" fill="#19C567"/>
<path opacity="0.027" fill-rule="evenodd" clip-rule="evenodd" d="M22.5 55.5C23.1667 56.1667 23.8333 56.8333 24.5 57.5C24.5 58.5 24.5 59.5 24.5 60.5C23.0687 59.2196 22.4021 57.5529 22.5 55.5Z" fill="#07BD5E"/>
<path opacity="0.02" fill-rule="evenodd" clip-rule="evenodd" d="M24.5 60.5C24.8333 60.5 25.1667 60.5 25.5 60.5C25.1667 63.1667 24.8333 63.1667 24.5 60.5Z" fill="#00D068"/>
<path opacity="0.016" fill-rule="evenodd" clip-rule="evenodd" d="M27.4999 64.5C27.6309 65.2389 27.4642 65.9056 26.9999 66.5C26.3082 65.5632 26.4749 64.8966 27.4999 64.5Z" fill="#05D380"/>
<path opacity="0.024" fill-rule="evenodd" clip-rule="evenodd" d="M71.5 62.5C72.8528 64.1284 72.5195 65.4617 70.5 66.5C70.5 65.8333 70.5 65.1667 70.5 64.5C71.3382 64.1583 71.6716 63.4916 71.5 62.5Z" fill="#0DD171"/>
<path opacity="0.024" fill-rule="evenodd" clip-rule="evenodd" d="M69.5 66.5C69.8333 66.5 70.1667 66.5 70.5 66.5C70.6716 67.4916 70.3382 68.1583 69.5 68.5C69.5 67.8333 69.5 67.1667 69.5 66.5Z" fill="#01D177"/>
<path opacity="0.01" fill-rule="evenodd" clip-rule="evenodd" d="M28.5 67.5C28.5 68.1667 28.5 68.8333 28.5 69.5C27.1667 68.8333 27.1667 68.1667 28.5 67.5Z" fill="#20E1C4"/>
<path opacity="0.02" fill-rule="evenodd" clip-rule="evenodd" d="M68.5 68.5C68.8333 68.5 69.1667 68.5 69.5 68.5C69.6716 69.4916 69.3382 70.1583 68.5 70.5C68.5 69.8333 68.5 69.1667 68.5 68.5Z" fill="#00CC65"/>
<path opacity="0.012" fill-rule="evenodd" clip-rule="evenodd" d="M67.5 70.5C67.8333 70.5 68.1667 70.5 68.5 70.5C68.1667 73.1667 67.8333 73.1667 67.5 70.5Z" fill="#00AA54"/>
<path opacity="0.016" fill-rule="evenodd" clip-rule="evenodd" d="M28.5 69.5C28.8333 69.5 29.1667 69.5 29.5 69.5C29.3284 70.4916 29.6618 71.1583 30.5 71.5C30.5 72.1667 30.5 72.8333 30.5 73.5C28.8958 72.713 28.2291 71.3797 28.5 69.5Z" fill="#0DC268"/>
<path opacity="0.016" fill-rule="evenodd" clip-rule="evenodd" d="M30.5 73.5C30.8333 73.5 31.1667 73.5 31.5 73.5C31.1667 76.1667 30.8333 76.1667 30.5 73.5Z" fill="#04C377"/>
<path opacity="0.024" fill-rule="evenodd" clip-rule="evenodd" d="M63.5 80.4999C63.5 79.8332 63.5 79.1666 63.5 78.4999C66.1867 77.9393 66.1867 78.606 63.5 80.4999Z" fill="#11C459"/>
<path opacity="0.01" fill-rule="evenodd" clip-rule="evenodd" d="M35.4999 80.5C35.6309 81.2389 35.4642 81.9056 34.9999 82.5C34.3082 81.5632 34.4749 80.8966 35.4999 80.5Z" fill="#14E9D3"/>
<path opacity="0.012" fill-rule="evenodd" clip-rule="evenodd" d="M62.5 80.5C62.8333 80.5 63.1667 80.5 63.5 80.5C63.6716 81.4916 63.3382 82.1583 62.5 82.5C62.5 81.8333 62.5 81.1667 62.5 80.5Z" fill="#0BE65F"/>
<path opacity="0.027" fill-rule="evenodd" clip-rule="evenodd" d="M61.5 82.5C61.8333 82.5 62.1667 82.5 62.5 82.5C62.3147 83.1701 61.9813 83.1701 61.5 82.5Z" fill="#00DB6C"/>
<path opacity="0.016" fill-rule="evenodd" clip-rule="evenodd" d="M60.5 83.5C60.8333 83.5 61.1667 83.5 61.5 83.5C61.6716 84.4916 61.3382 85.1583 60.5 85.5C60.5 84.8333 60.5 84.1667 60.5 83.5Z" fill="#0BA980"/>
<path opacity="0.01" fill-rule="evenodd" clip-rule="evenodd" d="M38.5 85.4999C38.5 86.1666 38.5 86.8332 38.5 87.4999C35.8133 85.606 35.8133 84.9393 38.5 85.4999Z" fill="#1A7F61"/>
<path opacity="0.01" fill-rule="evenodd" clip-rule="evenodd" d="M59.5 85.5C59.8333 85.5 60.1667 85.5 60.5 85.5C60.6716 86.4916 60.3382 87.1583 59.5 87.5C59.5 86.8333 59.5 86.1667 59.5 85.5Z" fill="#19A882"/>
<path opacity="0.01" fill-rule="evenodd" clip-rule="evenodd" d="M58.5 87.5C58.8333 87.5 59.1667 87.5 59.5 87.5C59.1667 90.1667 58.8333 90.1667 58.5 87.5Z" fill="#00FF7F"/>
<path opacity="0.012" fill-rule="evenodd" clip-rule="evenodd" d="M38.5 87.5C38.8333 87.5 39.1667 87.5 39.5 87.5C40.1667 87.5 40.5 87.8333 40.5 88.5C39.6987 90.7929 39.032 90.4596 38.5 87.5Z" fill="#158A4D"/>
<path opacity="0.027" fill-rule="evenodd" clip-rule="evenodd" d="M54.5 94.5C55.8333 95.1667 55.8333 95.1667 54.5 94.5Z" fill="#00DB6C"/>
<path opacity="0.01" fill-rule="evenodd" clip-rule="evenodd" d="M45.5 96.4999C45.5 97.1666 45.5 97.8332 45.5 98.4999C42.8133 96.606 42.8133 95.9393 45.5 96.4999Z" fill="#1CE458"/>
<path opacity="0.012" fill-rule="evenodd" clip-rule="evenodd" d="M53.5 95.5C53.8333 95.5 54.1667 95.5 54.5 95.5C54.6716 96.4916 54.3382 97.1583 53.5 97.5C53.5 96.8333 53.5 96.1667 53.5 95.5Z" fill="#00B55A"/>
<path opacity="0.02" fill-rule="evenodd" clip-rule="evenodd" d="M52.5 97.5C52.8333 97.5 53.1667 97.5 53.5 97.5C53.3147 98.1701 52.9813 98.1701 52.5 97.5Z" fill="#00CC65"/>
<path opacity="0.024" fill-rule="evenodd" clip-rule="evenodd" d="M45.5 98.5C46.1667 98.5 46.5 98.8333 46.5 99.5C46.1667 99.1667 45.8333 98.8333 45.5 98.5Z" fill="#00D57F"/>
</g>
<defs>
<clipPath id="clip0_226_16">
<rect width="100" height="100" fill="white"/>
</clipPath>
</defs>
</svg>
