<svg width="366" height="150" viewBox="0 0 366 150" fill="none" xmlns="http://www.w3.org/2000/svg">
<g clip-path="url(#clip0_226_104)">
<path opacity="0.01" fill-rule="evenodd" clip-rule="evenodd" d="M36.5 -0.5C36.8333 -0.5 37.1667 -0.5 37.5 -0.5C37.3147 0.170143 36.9813 0.170143 36.5 -0.5Z" fill="#00FF7F"/>
<path opacity="0.01" fill-rule="evenodd" clip-rule="evenodd" d="M42.5 -0.5C42.8333 -0.5 43.1667 -0.5 43.5 -0.5C43.3147 0.170143 42.9813 0.170143 42.5 -0.5Z" fill="black"/>
<path opacity="0.01" fill-rule="evenodd" clip-rule="evenodd" d="M36.5 0.5C35.8333 1.16667 35.8333 1.16667 36.5 0.5V0.5Z" fill="#00FF7F"/>
<path opacity="0.997" fill-rule="evenodd" clip-rule="evenodd" d="M39.5 -0.5C40.1667 -0.5 40.8333 -0.5 41.5 -0.5C40.6314 1.71702 40.298 4.05035 40.5 6.5C38.2653 14.0017 38.0986 21.6684 40 29.5C41.654 32.2317 44.154 33.565 47.5 33.5C50.8878 35.1184 54.5544 36.1184 58.5 36.5C59.5676 37.4345 60.901 37.7678 62.5 37.5C62.8417 38.3382 63.5084 38.6716 64.5 38.5C68.2601 40.2155 71.9268 42.2155 75.5 44.5C75.5 45.1667 75.8333 45.5 76.5 45.5C76.5 46.1667 76.8333 46.5 77.5 46.5C77.5 47.1667 77.8333 47.5 78.5 47.5C79.2632 49.3684 80.2632 51.0351 81.5 52.5C81.5 57.8333 81.5 63.1667 81.5 68.5C80.5655 69.5676 80.2322 70.901 80.5 72.5C79.5655 73.5676 79.2322 74.901 79.5 76.5C78.596 77.209 78.2627 78.209 78.5 79.5C77.596 80.209 77.2627 81.209 77.5 82.5C76.596 83.209 76.2627 84.209 76.5 85.5C75.6618 85.8417 75.3284 86.5084 75.5 87.5C74.596 88.209 74.2627 89.209 74.5 90.5C73.6618 90.8417 73.3284 91.5084 73.5 92.5C72.0687 93.7804 71.4021 95.4471 71.5 97.5C70.6618 97.8417 70.3284 98.5084 70.5 99.5C69.6618 99.8417 69.3284 100.508 69.5 101.5C68.6618 101.842 68.3284 102.508 68.5 103.5C67.6618 103.842 67.3284 104.508 67.5 105.5C66.6618 105.842 66.3284 106.508 66.5 107.5C65.6618 107.842 65.3284 108.508 65.5 109.5C64.6618 109.842 64.3284 110.508 64.5 111.5C63.6618 111.842 63.3284 112.508 63.5 113.5C62.6618 113.842 62.3284 114.508 62.5 115.5C61.6618 115.842 61.3284 116.508 61.5 117.5C60.6618 117.842 60.3284 118.508 60.5 119.5C59.6618 119.842 59.3284 120.508 59.5 121.5C58.8333 121.5 58.5 121.833 58.5 122.5C57.6618 122.842 57.3284 123.508 57.5 124.5C56.6618 124.842 56.3284 125.508 56.5 126.5C54.412 128.336 53.0787 130.669 52.5 133.5C51.6618 133.842 51.3284 134.508 51.5 135.5C50.8333 135.5 50.5 135.833 50.5 136.5C49.6618 136.842 49.3284 137.508 49.5 138.5C48.6618 138.842 48.3284 139.508 48.5 140.5C47.8333 140.5 47.5 140.833 47.5 141.5C46.6618 141.842 46.3284 142.508 46.5 143.5C45.8333 143.5 45.5 143.833 45.5 144.5C44.6618 144.842 44.3284 145.508 44.5 146.5C43.6618 146.842 43.3284 147.508 43.5 148.5C42.8333 148.5 42.5 148.833 42.5 149.5C41.1667 149.5 39.8333 149.5 38.5 149.5C38.573 147.973 37.9063 146.973 36.5 146.5C36.0679 145.29 35.4013 144.29 34.5 143.5C34.0679 142.29 33.4013 141.29 32.5 140.5C32.0679 139.29 31.4013 138.29 30.5 137.5C30.0679 136.29 29.4013 135.29 28.5 134.5C28.573 132.973 27.9063 131.973 26.5 131.5C26.6716 130.508 26.3382 129.842 25.5 129.5C25.0679 128.29 24.4013 127.29 23.5 126.5C23.6716 125.508 23.3382 124.842 22.5 124.5C22.5 123.833 22.1667 123.5 21.5 123.5C21.6716 122.508 21.3382 121.842 20.5 121.5C20.6716 120.508 20.3382 119.842 19.5 119.5C19.6716 118.508 19.3382 117.842 18.5 117.5C18.6716 116.508 18.3382 115.842 17.5 115.5C17.0679 114.29 16.4013 113.29 15.5 112.5C15.6716 111.508 15.3382 110.842 14.5 110.5C14.6716 109.508 14.3382 108.842 13.5 108.5C13.6716 107.508 13.3382 106.842 12.5 106.5C12.6716 105.508 12.3382 104.842 11.5 104.5C11.6716 103.508 11.3382 102.842 10.5 102.5C10.6716 101.508 10.3382 100.842 9.5 100.5C9.73731 99.209 9.40397 98.209 8.5 97.5C8.67158 96.5084 8.33825 95.8417 7.5 95.5C7.67158 94.5084 7.33825 93.8417 6.5 93.5C5.93467 89.4632 4.60133 85.7966 2.5 82.5C2.76781 80.901 2.43448 79.5676 1.5 78.5C1.73731 77.209 1.40397 76.209 0.5 75.5C0.784479 73.5853 0.451145 71.9187 -0.5 70.5C-0.5 63.8333 -0.5 57.1667 -0.5 50.5C0.403972 49.791 0.737305 48.791 0.5 47.5C1.33825 47.1583 1.67158 46.4916 1.5 45.5C2.81395 42.8721 4.14728 40.2054 5.5 37.5C6.33825 37.1583 6.67158 36.4916 6.5 35.5C7.16667 35.5 7.5 35.1667 7.5 34.5C10.4686 30.5238 13.4686 26.5238 16.5 22.5C17.1667 22.5 17.5 22.1667 17.5 21.5C24.5 13.8333 31.8333 6.5 39.5 -0.5ZM49.5 55.5C50.5 57.1667 51.8333 58.5 53.5 59.5C53.5 60.1667 53.8333 60.5 54.5 60.5C54.9267 63.0098 55.5933 65.3432 56.5 67.5C56.0371 70.4824 55.7038 73.4824 55.5 76.5C54.1798 78.4632 52.8465 80.4632 51.5 82.5C49.9731 82.427 48.9731 83.0937 48.5 84.5C41.4812 87.4127 34.8146 86.7461 28.5 82.5C28.5 81.8333 28.1667 81.5 27.5 81.5C24.0155 76.4264 22.6822 70.7597 23.5 64.5C24.3382 64.1583 24.6716 63.4916 24.5 62.5C25.6737 61.4863 26.3404 60.153 26.5 58.5C27.5 58.1667 28.1667 57.5 28.5 56.5C30.0269 56.573 31.0269 55.9063 31.5 54.5C37.6489 52.9089 43.6489 53.2422 49.5 55.5ZM53.5 57.5C54.9063 57.9731 55.573 58.9731 55.5 60.5C55.1667 60.5 54.8333 60.5 54.5 60.5C53.8333 60.5 53.5 60.1667 53.5 59.5C53.5 58.8333 53.5 58.1667 53.5 57.5ZM24.5 59.5C24.5 60.5 24.5 61.5 24.5 62.5C23.6618 62.8417 23.3284 63.5084 23.5 64.5C23.1667 64.5 22.8333 64.5 22.5 64.5C22.4021 62.4471 23.0687 60.7804 24.5 59.5ZM56.5 62.5C58.3764 65.7369 58.7097 69.0702 57.5 72.5C57.7845 70.5853 57.4511 68.9187 56.5 67.5C56.5 65.8333 56.5 64.1667 56.5 62.5ZM26.5 81.5C26.8333 81.5 27.1667 81.5 27.5 81.5C28.1667 81.5 28.5 81.8333 28.5 82.5C28.5 82.8333 28.5 83.1667 28.5 83.5C27.1667 83.5 26.5 82.8333 26.5 81.5Z" fill="#844F9E"/>
<path opacity="0.016" fill-rule="evenodd" clip-rule="evenodd" d="M40.4999 6.5C41.3018 5.04839 41.8018 3.38172 41.9999 1.5C42.4388 5.21127 42.1055 8.87794 40.9999 12.5C40.5044 10.5273 40.3378 8.5273 40.4999 6.5Z" fill="#1CC260"/>
<path opacity="0.01" fill-rule="evenodd" clip-rule="evenodd" d="M17.4999 21.5C16.8332 21.5 16.4999 21.8333 16.4999 22.5C15.2874 21.5029 15.4541 20.5029 16.9999 19.5C17.4642 20.0944 17.6309 20.7611 17.4999 21.5Z" fill="#23D348"/>
<path opacity="0.01" fill-rule="evenodd" clip-rule="evenodd" d="M39.5001 15.5C40.6379 18.3035 40.8046 21.3035 40.0001 24.5C39.5021 21.5184 39.3355 18.5184 39.5001 15.5Z" fill="#2ED39D"/>
<path opacity="0.012" fill-rule="evenodd" clip-rule="evenodd" d="M47.5 33.5C48.8333 32.1667 50.1667 32.1667 51.5 33.5C50.1667 33.5 48.8333 33.5 47.5 33.5Z" fill="#2EFE7B"/>
<path opacity="0.01" fill-rule="evenodd" clip-rule="evenodd" d="M51.5 33.5C52.552 33.3505 53.552 33.5172 54.5 34C53.2506 34.7401 52.2506 34.5735 51.5 33.5Z" fill="#16EE6C"/>
<path opacity="0.016" fill-rule="evenodd" clip-rule="evenodd" d="M7.5 34.5C6.83333 34.5 6.5 34.8333 6.5 35.5C6.16667 35.5 5.83333 35.5 5.5 35.5C6.03204 32.5404 6.69871 32.2071 7.5 34.5Z" fill="#219738"/>
<path opacity="0.016" fill-rule="evenodd" clip-rule="evenodd" d="M58.5 36.4999C59.2506 35.4264 60.2506 35.2598 61.5 35.9999C60.552 36.4827 59.552 36.6494 58.5 36.4999Z" fill="#1ADE9F"/>
<path opacity="0.012" fill-rule="evenodd" clip-rule="evenodd" d="M5.50003 35.5C5.50003 36.1667 5.50003 36.8333 5.50003 37.5C5.1667 37.5 4.83336 37.5 4.50003 37.5C4.32845 36.5084 4.66178 35.8417 5.50003 35.5Z" fill="#1DC58C"/>
<path opacity="0.012" fill-rule="evenodd" clip-rule="evenodd" d="M4.5 37.5C3.83333 38.1667 3.83333 38.1667 4.5 37.5V37.5Z" fill="#00AA54"/>
<path opacity="0.016" fill-rule="evenodd" clip-rule="evenodd" d="M62.5 37.5001C64.0894 36.379 65.7561 36.5457 67.5 38.0001C66.552 38.4829 65.552 38.6496 64.5 38.5001C64.1583 37.6619 63.4916 37.3285 62.5 37.5001Z" fill="#1BAD3A"/>
<path opacity="0.012" fill-rule="evenodd" clip-rule="evenodd" d="M1.5 45.5C0.661754 45.8417 0.32842 46.5084 0.5 47.5C0.166667 47.5 -0.166667 47.5 -0.5 47.5C-0.5 46.5 -0.5 45.5 -0.5 44.5C0.966513 41.7417 1.63318 42.075 1.5 45.5Z" fill="#249C45"/>
<path opacity="0.01" fill-rule="evenodd" clip-rule="evenodd" d="M75.5 44.4999C77.268 43.4924 78.6013 44.1591 79.5 46.4999C79.3764 47.1066 79.0431 47.4399 78.5 47.4999C77.8333 47.4999 77.5 47.1666 77.5 46.4999C76.8333 46.4999 76.5 46.1666 76.5 45.4999C75.8333 45.4999 75.5 45.1666 75.5 44.4999Z" fill="#22CA59"/>
<path opacity="0.01" fill-rule="evenodd" clip-rule="evenodd" d="M300.5 48.5001C303.304 47.3623 306.304 47.1956 309.5 48.0001C306.518 48.4981 303.518 48.6647 300.5 48.5001Z" fill="#FEFFFE"/>
<path opacity="0.754" fill-rule="evenodd" clip-rule="evenodd" d="M311.5 91.5C313.948 92.4731 316.615 92.8064 319.5 92.5C319.5 95.5 319.5 98.5 319.5 101.5C317.265 101.205 315.265 101.539 313.5 102.5C306.761 102.477 302.094 99.4773 299.5 93.5C299.5 85.8333 299.5 78.1667 299.5 70.5C297.167 70.5 294.833 70.5 292.5 70.5C292.5 67.5 292.5 64.5 292.5 61.5C294.833 61.5 297.167 61.5 299.5 61.5C299.5 57.5 299.5 53.5 299.5 49.5C302.833 49.5 306.167 49.5 309.5 49.5C309.5 53.5 309.5 57.5 309.5 61.5C312.833 61.5 316.167 61.5 319.5 61.5C319.5 64.5 319.5 67.5 319.5 70.5C316.167 70.5 312.833 70.5 309.5 70.5C309.334 76.5092 309.501 82.5092 310 88.5C310.232 89.7375 310.732 90.7375 311.5 91.5Z" fill="#FBFF2F"/>
<path opacity="0.012" fill-rule="evenodd" clip-rule="evenodd" d="M82.5 52.5C82.1667 52.5 81.8333 52.5 81.5 52.5C81.8333 49.8333 82.1667 49.8333 82.5 52.5Z" fill="#00AA54"/>
<path opacity="0.01" fill-rule="evenodd" clip-rule="evenodd" d="M310.5 50.5C311.477 53.2869 311.81 56.2869 311.5 59.5C314.187 59.3359 316.854 59.5026 319.5 60C316.518 60.498 313.518 60.6646 310.5 60.5C310.5 57.1667 310.5 53.8333 310.5 50.5Z" fill="#FEFFFE"/>
<path opacity="0.01" fill-rule="evenodd" clip-rule="evenodd" d="M297.5 51.5C298.477 54.2869 298.81 57.2869 298.5 60.5C296.473 60.6621 294.473 60.4955 292.5 60C294.134 59.5065 295.801 59.3398 297.5 59.5C297.5 56.8333 297.5 54.1667 297.5 51.5Z" fill="#FEFFFE"/>
<path opacity="0.012" fill-rule="evenodd" clip-rule="evenodd" d="M82.5001 52.5C83.5984 53.6009 83.7651 54.9343 83.0001 56.5C82.5101 55.2068 82.3434 53.8734 82.5001 52.5Z" fill="#1BC261"/>
<path opacity="0.01" fill-rule="evenodd" clip-rule="evenodd" d="M29.5 54.5C30.1667 54.5 30.8333 54.5 31.5 54.5C31.0269 55.9063 30.0269 56.573 28.5 56.5C28.5 56.1667 28.5 55.8333 28.5 55.5C29.1667 55.5 29.5 55.1667 29.5 54.5Z" fill="#1C673D"/>
<path opacity="0.016" fill-rule="evenodd" clip-rule="evenodd" d="M49.5 55.5C50.1667 55.5 50.8333 55.5 51.5 55.5C51.5 56.1667 51.8333 56.5 52.5 56.5C52.5 57.1667 52.8333 57.5 53.5 57.5C53.5 58.1667 53.5 58.8333 53.5 59.5C51.8333 58.5 50.5 57.1667 49.5 55.5Z" fill="#22CF5E"/>
<path opacity="0.01" fill-rule="evenodd" clip-rule="evenodd" d="M143.5 59.5C144.878 58.7656 146.378 58.0989 148 57.5C149.734 58.2489 151.567 58.7489 153.5 59C150.183 59.4983 146.85 59.665 143.5 59.5Z" fill="#FEFFFE"/>
<path opacity="0.01" fill-rule="evenodd" clip-rule="evenodd" d="M172.5 57.5C174.086 58.1481 175.753 58.6481 177.5 59C174.5 59.6667 171.5 59.6667 168.5 59C170.058 58.79 171.391 58.29 172.5 57.5Z" fill="#FEFFFE"/>
<path opacity="0.011" fill-rule="evenodd" clip-rule="evenodd" d="M215.5 57.5C217.746 58.2096 220.08 58.7096 222.5 59C218.5 59.6667 214.5 59.6667 210.5 59C212.382 58.8019 214.048 58.3019 215.5 57.5Z" fill="#FEFFFE"/>
<path opacity="0.011" fill-rule="evenodd" clip-rule="evenodd" d="M263.5 59.5C266.64 58.3592 269.973 58.1925 273.5 59C270.183 59.4983 266.85 59.665 263.5 59.5Z" fill="#FEFFFE"/>
<path opacity="0.01" fill-rule="evenodd" clip-rule="evenodd" d="M25.5 58.5C25.8333 58.5 26.1667 58.5 26.5 58.5C26.3404 60.153 25.6737 61.4863 24.5 62.5C24.5 61.5 24.5 60.5 24.5 59.5C25.1667 59.5 25.5 59.1667 25.5 58.5Z" fill="#21B73B"/>
<path opacity="0.01" fill-rule="evenodd" clip-rule="evenodd" d="M126.5 60.5C129.64 59.3592 132.973 59.1925 136.5 60C133.183 60.4983 129.85 60.665 126.5 60.5Z" fill="#FEFFFE"/>
<path opacity="0.01" fill-rule="evenodd" clip-rule="evenodd" d="M143.5 59.5001C143.5 59.8334 143.5 60.1668 143.5 60.5001C142.508 60.3285 141.842 60.6619 141.5 61.5001C140.833 61.5001 140.167 61.5001 139.5 61.5001C140.287 59.8959 141.62 59.2292 143.5 59.5001Z" fill="#FEFFFE"/>
<path opacity="0.01" fill-rule="evenodd" clip-rule="evenodd" d="M245.5 60.5C248.64 59.3592 251.973 59.1925 255.5 60C252.183 60.4983 248.85 60.665 245.5 60.5Z" fill="#FEFFFE"/>
<path opacity="0.01" fill-rule="evenodd" clip-rule="evenodd" d="M322.5 60.5001C325.976 59.3568 329.642 59.1902 333.5 60.0001C329.848 60.4987 326.182 60.6654 322.5 60.5001Z" fill="#FEFFFE"/>
<path opacity="0.01" fill-rule="evenodd" clip-rule="evenodd" d="M352.5 60.5C355.64 59.3592 358.973 59.1925 362.5 60C359.183 60.4983 355.85 60.665 352.5 60.5Z" fill="#FEFFFE"/>
<path opacity="0.732" fill-rule="evenodd" clip-rule="evenodd" d="M143.5 60.5C148.071 60.0537 152.404 60.7203 156.5 62.5C157.167 63.8333 158.167 64.8333 159.5 65.5C160.623 66.7574 161.289 66.4241 161.5 64.5C166.539 60.7445 172.206 59.5778 178.5 61C181.961 62.3046 184.628 64.4713 186.5 67.5C188.413 78.4158 188.913 89.4158 188 100.5C184.27 101.46 180.437 101.793 176.5 101.5C176.827 91.6522 176.494 81.9856 175.5 72.5C173.385 69.4828 170.718 68.8161 167.5 70.5C165.5 70.5 164.5 71.5 164.5 73.5C163.596 74.209 163.263 75.209 163.5 76.5C162.507 84.6499 162.174 92.9832 162.5 101.5C158.833 101.5 155.167 101.5 151.5 101.5C151.666 92.1607 151.5 82.8274 151 73.5C150.722 72.5842 150.222 71.9175 149.5 71.5C146.5 68.8333 143.5 68.8333 140.5 71.5C139.833 71.5 139.5 71.8333 139.5 72.5C138.596 73.209 138.263 74.209 138.5 75.5C137.507 83.9839 137.174 92.6506 137.5 101.5C133.833 101.5 130.167 101.5 126.5 101.5C126.5 88.1667 126.5 74.8333 126.5 61.5C129.833 61.5 133.167 61.5 136.5 61.5C136.343 62.8734 136.51 64.2068 137 65.5C137.717 64.9558 138.217 64.2891 138.5 63.5C139.167 63.5 139.5 63.1667 139.5 62.5C140.492 62.6716 141.158 62.3382 141.5 61.5C142.492 61.6716 143.158 61.3382 143.5 60.5ZM156.5 62.5C157.609 62.5569 158.609 62.8902 159.5 63.5C159.5 64.1667 159.5 64.8333 159.5 65.5C158.167 64.8333 157.167 63.8333 156.5 62.5ZM159.5 65.5C160.623 66.7574 161.289 66.4241 161.5 64.5C160.833 64.8333 160.167 65.1667 159.5 65.5ZM167.5 70.5C166.833 71.8333 165.833 72.8333 164.5 73.5C164.5 71.5 165.5 70.5 167.5 70.5Z" fill="#FBFF2F"/>
<path opacity="0.744" fill-rule="evenodd" clip-rule="evenodd" d="M225.5 61.5001C228.881 63.8798 231.547 66.8798 233.5 70.5001C233.5 80.8334 233.5 91.1668 233.5 101.5C230.167 101.5 226.833 101.5 223.5 101.5C223.657 100.127 223.49 98.7933 223 97.5001C222.283 98.0443 221.783 98.711 221.5 99.5001C220.833 99.5001 220.5 99.8334 220.5 100.5C213.958 103.273 207.625 102.94 201.5 99.5001C193.978 90.2268 195.645 83.0601 206.5 78.0001C210.609 77.0558 214.609 76.2225 218.5 75.5001C220.288 75.7853 221.955 75.452 223.5 74.5001C223.376 73.8934 223.043 73.5601 222.5 73.5001C222.672 72.5085 222.338 71.8418 221.5 71.5001C219.71 70.0028 217.544 69.3361 215 69.5001C212.456 69.3361 210.29 70.0028 208.5 71.5001C207.508 71.3285 206.842 71.6619 206.5 72.5001C205.833 72.5001 205.5 72.8334 205.5 73.5001C203.036 71.8655 201.036 69.6988 199.5 67.0001C202.173 63.9929 205.507 61.9929 209.5 61.0001C214.871 60.324 220.204 60.4906 225.5 61.5001ZM221.5 89.5001C221.167 86.8334 220.833 86.8334 220.5 89.5001C219.833 89.5001 219.5 89.8334 219.5 90.5001C218.508 90.3285 217.842 90.6619 217.5 91.5001C215.167 91.5001 212.833 91.5001 210.5 91.5001C210.5 90.8334 210.167 90.5001 209.5 90.5001C209.167 89.1668 208.833 89.1668 208.5 90.5001C207.529 89.038 207.862 87.7047 209.5 86.5001C209.786 88.9328 210.452 88.9328 211.5 86.5001C216.833 86.1668 216.833 85.8334 211.5 85.5001C215.21 83.8644 219.21 83.1978 223.5 83.5001C223.741 85.8985 223.074 87.8985 221.5 89.5001ZM220.5 89.5001C220.833 89.5001 221.167 89.5001 221.5 89.5001C221.306 91.9119 219.973 92.9119 217.5 92.5001C217.5 92.1668 217.5 91.8334 217.5 91.5001C218.492 91.6717 219.158 91.3383 219.5 90.5001C220.167 90.5001 220.5 90.1668 220.5 89.5001ZM208.5 90.5001C208.833 90.5001 209.167 90.5001 209.5 90.5001C210.167 90.5001 210.5 90.8334 210.5 91.5001C210.5 91.8334 210.5 92.1668 210.5 92.5001C209.167 92.5001 208.5 91.8334 208.5 90.5001Z" fill="#FBFF2F"/>
<path opacity="0.012" fill-rule="evenodd" clip-rule="evenodd" d="M225.5 60.5C226.833 61.1667 226.833 61.1667 225.5 60.5V60.5Z" fill="#FEFFFE"/>
<path opacity="0.756" fill-rule="evenodd" clip-rule="evenodd" d="M283.5 66.5001C284.853 69.2055 286.186 71.8722 287.5 74.5001C288.704 79.1562 288.704 83.8229 287.5 88.5001C285.992 90.1816 284.992 92.1816 284.5 94.5001C283.833 94.5001 283.5 94.8334 283.5 95.5001C282.833 95.5001 282.5 95.8334 282.5 96.5001C281.833 96.5001 281.5 96.8334 281.5 97.5001C280.833 97.5001 280.5 97.8334 280.5 98.5001C279.833 98.5001 279.5 98.8334 279.5 99.5001C278.508 99.3285 277.842 99.6619 277.5 100.5C275.597 100.796 273.93 101.463 272.5 102.5C268.007 102.731 263.674 102.064 259.5 100.5C259.5 99.8334 259.167 99.5001 258.5 99.5001C258.217 98.711 257.717 98.0443 257 97.5001C256.5 105.159 256.334 112.826 256.5 120.5C252.833 120.5 249.167 120.5 245.5 120.5C245.5 100.833 245.5 81.1668 245.5 61.5001C248.833 61.5001 252.167 61.5001 255.5 61.5001C255.343 62.8735 255.51 64.2069 256 65.5001C256.717 64.9559 257.217 64.2892 257.5 63.5001C258.167 63.5001 258.5 63.1668 258.5 62.5001C267.722 58.8183 276.056 60.1517 283.5 66.5001ZM255.5 61.5001C255.833 61.5001 256.167 61.5001 256.5 61.5001C256.328 62.4917 256.662 63.1584 257.5 63.5001C257.217 64.2892 256.717 64.9559 256 65.5001C255.51 64.2069 255.343 62.8735 255.5 61.5001ZM272.5 71.5001C271.761 71.3691 271.094 71.5358 270.5 72.0001C272.07 73.3969 273.404 74.8969 274.5 76.5001C274.833 81.8334 275.167 81.8334 275.5 76.5001C276.16 77.9641 276.493 79.6308 276.5 81.5001C276.684 84.2047 276.017 86.538 274.5 88.5001C274.649 87.4481 274.483 86.4481 274 85.5001C273.727 87.329 272.893 88.829 271.5 90.0001C268.167 90.6668 264.833 90.6668 261.5 90.0001C260.364 88.855 259.364 87.6884 258.5 86.5001C258.326 84.1391 257.993 81.8057 257.5 79.5001C258.434 78.4325 258.768 77.0991 258.5 75.5001C259.167 75.5001 259.5 75.1668 259.5 74.5001C260.5 74.1668 261.167 73.5001 261.5 72.5001C260.833 72.5001 260.167 72.5001 259.5 72.5001C260.287 70.8959 261.62 70.2292 263.5 70.5001C264.449 69.8477 265.615 69.5144 267 69.5001C269.221 69.3933 271.054 70.0599 272.5 71.5001ZM259.5 72.5001C259.5 73.1668 259.5 73.8334 259.5 74.5001C258.833 74.5001 258.5 74.8334 258.5 75.5001C258.167 75.5001 257.833 75.5001 257.5 75.5001C257.427 73.9732 258.094 72.9732 259.5 72.5001Z" fill="#FBFF2F"/>
<path opacity="0.01" fill-rule="evenodd" clip-rule="evenodd" d="M124.5 61.5C125.66 74.3268 125.827 87.3268 125 100.5C124.5 87.5043 124.333 74.5043 124.5 61.5Z" fill="#FEFFFE"/>
<path opacity="0.013" fill-rule="evenodd" clip-rule="evenodd" d="M139.5 61.5C139.5 61.8333 139.5 62.1667 139.5 62.5C138.833 62.5 138.5 62.8333 138.5 63.5C137.243 62.3774 137.576 61.7107 139.5 61.5Z" fill="#FEFFFE"/>
<path opacity="0.01" fill-rule="evenodd" clip-rule="evenodd" d="M162.5 61.5C163.833 62.1667 163.833 62.1667 162.5 61.5V61.5Z" fill="#FEFFFE"/>
<path opacity="0.01" fill-rule="evenodd" clip-rule="evenodd" d="M243.5 61.5C244.828 80.6708 244.828 100.004 243.5 119.5C242.181 100.102 242.181 80.7687 243.5 61.5Z" fill="#FEFFFE"/>
<path opacity="0.013" fill-rule="evenodd" clip-rule="evenodd" d="M256.5 61.5C257.492 61.3284 258.158 61.6618 258.5 62.5C257.833 62.5 257.5 62.8333 257.5 63.5C256.662 63.1583 256.328 62.4916 256.5 61.5Z" fill="#FEFFFE"/>
<path opacity="0.011" fill-rule="evenodd" clip-rule="evenodd" d="M290.5 61.5C291.634 63.9664 291.801 66.633 291 69.5C290.503 66.854 290.336 64.1873 290.5 61.5Z" fill="#FEFFFE"/>
<path opacity="0.738" fill-rule="evenodd" clip-rule="evenodd" d="M337.5 71.5C337.402 73.5529 338.069 75.2196 339.5 76.5C339.263 77.791 339.596 78.791 340.5 79.5C340.402 81.5529 341.069 83.2196 342.5 84.5C343.193 80.2382 344.026 79.9048 345 83.5C346.632 79.9675 347.799 76.3008 348.5 72.5C349.738 70.7857 350.405 68.7857 350.5 66.5C351.404 65.791 351.737 64.791 351.5 63.5C355.173 61.6823 359.173 61.0157 363.5 61.5C363.5 62.5 363.5 63.5 363.5 64.5C362.069 65.7804 361.402 67.4471 361.5 69.5C360.596 70.209 360.263 71.209 360.5 72.5C359.662 72.8417 359.328 73.5084 359.5 74.5C358.596 75.209 358.263 76.209 358.5 77.5C357.662 77.8417 357.328 78.5084 357.5 79.5C356.596 80.209 356.263 81.209 356.5 82.5C355.662 82.8417 355.328 83.5084 355.5 84.5C354.596 85.209 354.263 86.209 354.5 87.5C353.662 87.8417 353.328 88.5084 353.5 89.5C352.596 90.209 352.263 91.209 352.5 92.5C351.596 93.209 351.263 94.209 351.5 95.5C350.662 95.8417 350.328 96.5084 350.5 97.5C348.399 100.797 347.065 104.463 346.5 108.5C345.662 108.842 345.328 109.508 345.5 110.5C344.662 110.842 344.328 111.508 344.5 112.5C343.662 112.842 343.328 113.508 343.5 114.5C342.833 114.5 342.5 114.833 342.5 115.5C341.833 115.5 341.5 115.833 341.5 116.5C340.833 116.5 340.5 116.833 340.5 117.5C339.833 117.5 339.5 117.833 339.5 118.5C338.508 118.328 337.842 118.662 337.5 119.5C336.508 119.328 335.842 119.662 335.5 120.5C331.833 120.5 328.167 120.5 324.5 120.5C324.616 117.14 324.949 113.807 325.5 110.5C330.644 111.802 334.144 110.135 336 105.5C336.601 103.863 337.101 102.197 337.5 100.5C336.061 96.629 334.394 92.9623 332.5 89.5C332.204 87.597 331.537 85.9303 330.5 84.5C329.012 79.5329 327.012 74.8662 324.5 70.5C324.34 68.847 323.674 67.5137 322.5 66.5C322.737 65.209 322.404 64.209 321.5 63.5C323.048 62.2057 325.048 61.5391 327.5 61.5C329.5 61.8333 331.5 62.1667 333.5 62.5C334.609 65.7081 335.942 68.7081 337.5 71.5ZM349.5 66.5C349.833 66.5 350.167 66.5 350.5 66.5C350.405 68.7857 349.738 70.7857 348.5 72.5C348.517 70.4352 348.85 68.4352 349.5 66.5ZM337.5 71.5C338.931 72.7804 339.598 74.4471 339.5 76.5C338.069 75.2196 337.402 73.5529 337.5 71.5ZM342.5 84.5C344.973 84.9473 345.14 85.9473 343 87.5C342.517 86.552 342.351 85.552 342.5 84.5Z" fill="#FBFF2F"/>
<path opacity="0.01" fill-rule="evenodd" clip-rule="evenodd" d="M351.5 63.5C350.596 64.209 350.263 65.209 350.5 66.5C350.167 66.5 349.833 66.5 349.5 66.5C349.231 64.5714 349.731 62.9047 351 61.5C351.464 62.0944 351.631 62.7611 351.5 63.5Z" fill="#FEFFFE"/>
<path opacity="0.01" fill-rule="evenodd" clip-rule="evenodd" d="M365.5 61.5C365.5 62.5 365.5 63.5 365.5 64.5C365.167 64.5 364.833 64.5 364.5 64.5C364.263 63.209 364.596 62.209 365.5 61.5Z" fill="#FEFFFE"/>
<path opacity="0.01" fill-rule="evenodd" clip-rule="evenodd" d="M159.5 63.5C160.492 63.3284 161.158 63.6618 161.5 64.5C160.833 64.8333 160.167 65.1667 159.5 65.5C159.5 64.8333 159.5 64.1667 159.5 63.5Z" fill="#FEFFFE"/>
<path opacity="0.011" fill-rule="evenodd" clip-rule="evenodd" d="M321.5 63.5C321.263 64.791 321.596 65.791 322.5 66.5C322.539 67.7562 322.039 68.7562 321 69.5C320.211 67.2884 320.378 65.2884 321.5 63.5Z" fill="#FEFFFE"/>
<path opacity="0.01" fill-rule="evenodd" clip-rule="evenodd" d="M363.5 64.5C363.833 64.5 364.167 64.5 364.5 64.5C364.167 67.1667 363.833 67.1667 363.5 64.5Z" fill="#FEFFFE"/>
<path opacity="0.012" fill-rule="evenodd" clip-rule="evenodd" d="M284.5 66.5C283.833 65.1667 283.833 65.1667 284.5 66.5V66.5Z" fill="#FEFFFE"/>
<path opacity="0.012" fill-rule="evenodd" clip-rule="evenodd" d="M187.5 67.5C186.833 66.1667 186.833 66.1667 187.5 67.5V67.5Z" fill="#FEFFFE"/>
<path opacity="0.01" fill-rule="evenodd" clip-rule="evenodd" d="M284.5 66.5C285.833 67.1667 285.833 67.1667 284.5 66.5V66.5Z" fill="#FEFFFE"/>
<path opacity="0.01" fill-rule="evenodd" clip-rule="evenodd" d="M187.5 67.5C188.525 67.8966 188.692 68.5632 188 69.5C187.536 68.9056 187.369 68.2389 187.5 67.5Z" fill="#FEFFFE"/>
<path opacity="0.01" fill-rule="evenodd" clip-rule="evenodd" d="M362.5 69.5C362.369 68.7611 362.536 68.0944 363 67.5C363.692 68.4368 363.525 69.1034 362.5 69.5Z" fill="#FEFFFE"/>
<path opacity="0.01" fill-rule="evenodd" clip-rule="evenodd" d="M234.5 70.5C234.167 70.5 233.833 70.5 233.5 70.5C233.833 67.8333 234.167 67.8333 234.5 70.5Z" fill="#FEFFFE"/>
<path opacity="0.016" fill-rule="evenodd" clip-rule="evenodd" d="M81.5 72.5C81.5 71.1667 81.5 69.8333 81.5 68.5C82.3138 66.369 82.8138 64.0356 83 61.5C83.8794 65.4773 83.3794 69.1439 81.5 72.5Z" fill="#22975E"/>
<path opacity="0.01" fill-rule="evenodd" clip-rule="evenodd" d="M361.5 69.5C361.833 69.5 362.167 69.5 362.5 69.5C362.167 72.1667 361.833 72.1667 361.5 69.5Z" fill="#FEFFFE"/>
<path opacity="0.01" fill-rule="evenodd" clip-rule="evenodd" d="M189.5 75.5C188.387 74.0536 188.22 72.3869 189 70.5C189.494 72.1341 189.66 73.8008 189.5 75.5Z" fill="#FEFFFE"/>
<path opacity="0.01" fill-rule="evenodd" clip-rule="evenodd" d="M234.5 70.5C235.658 80.3247 235.825 90.3247 235 100.5C234.5 90.5056 234.334 80.5056 234.5 70.5Z" fill="#FEFFFE"/>
<path opacity="0.01" fill-rule="evenodd" clip-rule="evenodd" d="M324.5 70.5C324.631 71.2389 324.464 71.9056 324 72.5C323.308 71.5632 323.475 70.8966 324.5 70.5Z" fill="#FEFFFE"/>
<path opacity="0.01" fill-rule="evenodd" clip-rule="evenodd" d="M140.5 72.5C140.5 72.1667 140.5 71.8333 140.5 71.5C143.167 71.8333 143.167 72.1667 140.5 72.5Z" fill="#FEFFFE"/>
<path opacity="0.01" fill-rule="evenodd" clip-rule="evenodd" d="M149.5 71.5C149.489 74.0009 148.822 74.1676 147.5 72C148.094 71.5357 148.761 71.369 149.5 71.5Z" fill="#FEFFFE"/>
<path opacity="0.012" fill-rule="evenodd" clip-rule="evenodd" d="M208.5 71.5C209.833 72.1667 209.833 72.1667 208.5 71.5V71.5Z" fill="#FEFFFE"/>
<path opacity="0.012" fill-rule="evenodd" clip-rule="evenodd" d="M221.5 71.5C221.103 72.525 220.437 72.6917 219.5 72C220.094 71.5357 220.761 71.369 221.5 71.5Z" fill="#FEFFFE"/>
<path opacity="0.01" fill-rule="evenodd" clip-rule="evenodd" d="M272.5 71.5C272.5 72.1667 272.833 72.5 273.5 72.5C273.5 73.1667 273.833 73.5 274.5 73.5C274.5 74.5 274.5 75.5 274.5 76.5C273.404 74.8968 272.07 73.3968 270.5 72C271.094 71.5357 271.761 71.369 272.5 71.5Z" fill="#FEFFFE"/>
<path opacity="0.01" fill-rule="evenodd" clip-rule="evenodd" d="M287.5 74.5001C287.234 72.6527 287.568 71.9861 288.5 72.5001C289.485 74.0984 289.651 75.7651 289 77.5001C288.768 76.2626 288.268 75.2626 287.5 74.5001Z" fill="#FEFFFE"/>
<path opacity="0.01" fill-rule="evenodd" clip-rule="evenodd" d="M299.5 93.4999C299.587 96.5982 299.087 96.9315 298 94.4999C297.5 87.1741 297.334 79.8408 297.5 72.4999C295.801 72.6601 294.134 72.4934 292.5 71.9999C294.473 71.5044 296.473 71.3378 298.5 71.4999C298.175 79.019 298.508 86.3523 299.5 93.4999Z" fill="#FEFFFE"/>
<path opacity="0.01" fill-rule="evenodd" clip-rule="evenodd" d="M310.5 71.5001C313.518 71.3355 316.518 71.5021 319.5 72.0001C316.854 72.4975 314.187 72.6642 311.5 72.5001C311.666 77.5112 311.499 82.5112 311 87.5001C310.501 82.1772 310.334 76.8438 310.5 71.5001Z" fill="#FEFFFE"/>
<path opacity="0.012" fill-rule="evenodd" clip-rule="evenodd" d="M139.5 72.5C139.833 72.5 140.167 72.5 140.5 72.5C140.167 75.1667 139.833 75.1667 139.5 72.5Z" fill="#FEFFFE"/>
<path opacity="0.01" fill-rule="evenodd" clip-rule="evenodd" d="M175.5 72.5C175.666 81.8393 175.5 91.1726 175 100.5C174.176 90.9908 174.342 81.6575 175.5 72.5Z" fill="#FEFFFE"/>
<path opacity="0.01" fill-rule="evenodd" clip-rule="evenodd" d="M206.5 73.5C206.5 73.1667 206.5 72.8333 206.5 72.5C207.167 72.5 207.833 72.5 208.5 72.5C208.158 73.3382 207.492 73.6716 206.5 73.5Z" fill="#FEFFFE"/>
<path opacity="0.01" fill-rule="evenodd" clip-rule="evenodd" d="M259.5 72.5C260.167 72.5 260.833 72.5 261.5 72.5C261.167 73.5 260.5 74.1667 259.5 74.5C259.5 73.8333 259.5 73.1667 259.5 72.5Z" fill="#FEFFFE"/>
<path opacity="0.01" fill-rule="evenodd" clip-rule="evenodd" d="M360.5 72.5C361.833 73.1667 361.833 73.8333 360.5 74.5C360.5 73.8333 360.5 73.1667 360.5 72.5Z" fill="#FEFFFE"/>
<path opacity="0.01" fill-rule="evenodd" clip-rule="evenodd" d="M56.5 67.5C57.4511 68.9187 57.7845 70.5853 57.5 72.5C56.5655 73.5676 56.2322 74.901 56.5 76.5C56.1667 76.5 55.8333 76.5 55.5 76.5C55.7038 73.4824 56.0371 70.4824 56.5 67.5Z" fill="#22E976"/>
<path opacity="0.01" fill-rule="evenodd" clip-rule="evenodd" d="M80.5 72.5C80.8333 72.5 81.1667 72.5 81.5 72.5C81.7678 74.099 81.4345 75.4324 80.5 76.5C80.5 75.1667 80.5 73.8333 80.5 72.5Z" fill="#1F9C5E"/>
<path opacity="0.01" fill-rule="evenodd" clip-rule="evenodd" d="M205.5 73.5C205.833 73.5 206.167 73.5 206.5 73.5C206.315 74.1701 205.981 74.1701 205.5 73.5Z" fill="#FEFFFE"/>
<path opacity="0.01" fill-rule="evenodd" clip-rule="evenodd" d="M222.5 73.5C221.167 74.1667 219.833 74.8333 218.5 75.5C215.813 75.6641 213.146 75.4974 210.5 75C214.491 74.3583 218.491 73.8583 222.5 73.5Z" fill="#FEFFFE"/>
<path opacity="0.015" fill-rule="evenodd" clip-rule="evenodd" d="M149.5 74.5C150.657 82.9901 150.824 91.6567 150 100.5C149.5 91.8397 149.334 83.1731 149.5 74.5Z" fill="#FEFFFE"/>
<path opacity="0.01" fill-rule="evenodd" clip-rule="evenodd" d="M205.5 74.5C205.103 75.525 204.437 75.6917 203.5 75C204.094 74.5357 204.761 74.369 205.5 74.5Z" fill="#FEFFFE"/>
<path opacity="0.01" fill-rule="evenodd" clip-rule="evenodd" d="M359.5 74.5C359.833 74.5 360.167 74.5 360.5 74.5C360.737 75.791 360.404 76.791 359.5 77.5C359.5 76.5 359.5 75.5 359.5 74.5Z" fill="#FEFFFE"/>
<path opacity="0.01" fill-rule="evenodd" clip-rule="evenodd" d="M138.5 75.5C139.657 83.6563 139.823 91.9896 139 100.5C138.5 92.1733 138.334 83.84 138.5 75.5Z" fill="#FEFFFE"/>
<path opacity="0.01" fill-rule="evenodd" clip-rule="evenodd" d="M189.5 75.5C190.657 83.6563 190.823 91.9896 190 100.5C189.5 92.1733 189.334 83.84 189.5 75.5Z" fill="#FEFFFE"/>
<path opacity="0.016" fill-rule="evenodd" clip-rule="evenodd" d="M-0.5 75.5C-0.166667 75.5 0.166667 75.5 0.5 75.5C0.5 76.5 0.5 77.5 0.5 78.5C0.166667 78.5 -0.166667 78.5 -0.5 78.5C-0.5 77.5 -0.5 76.5 -0.5 75.5Z" fill="#06DE80"/>
<path opacity="0.012" fill-rule="evenodd" clip-rule="evenodd" d="M163.5 76.5C164.656 84.3225 164.823 92.3225 164 100.5C163.5 92.5069 163.334 84.5069 163.5 76.5Z" fill="#FEFFFE"/>
<path opacity="0.012" fill-rule="evenodd" clip-rule="evenodd" d="M79.5 76.5C79.8333 76.5 80.1667 76.5 80.5 76.5C80.1667 79.1667 79.8333 79.1667 79.5 76.5Z" fill="#03B063"/>
<path opacity="0.012" fill-rule="evenodd" clip-rule="evenodd" d="M202.5 77.5C203.833 78.1667 203.833 78.1667 202.5 77.5V77.5Z" fill="#FEFFFE"/>
<path opacity="0.01" fill-rule="evenodd" clip-rule="evenodd" d="M341.5 79.5C341.167 79.5 340.833 79.5 340.5 79.5C340.833 76.8333 341.167 76.8333 341.5 79.5Z" fill="#FEFFFE"/>
<path opacity="0.01" fill-rule="evenodd" clip-rule="evenodd" d="M358.5 77.5C358.833 77.5 359.167 77.5 359.5 77.5C359.672 78.4916 359.338 79.1583 358.5 79.5C358.5 78.8333 358.5 78.1667 358.5 77.5Z" fill="#FEFFFE"/>
<path opacity="0.012" fill-rule="evenodd" clip-rule="evenodd" d="M0.499882 78.5C0.833215 78.5 1.16655 78.5 1.49988 78.5C1.49988 79.8333 1.49988 81.1667 1.49988 82.5C0.565407 81.4324 0.232073 80.099 0.499882 78.5Z" fill="#2EC670"/>
<path opacity="0.01" fill-rule="evenodd" clip-rule="evenodd" d="M256.5 79.5C256.833 79.5 257.167 79.5 257.5 79.5C257.993 81.8056 258.326 84.139 258.5 86.5C258.167 86.5 257.833 86.5 257.5 86.5C257.737 85.209 257.404 84.209 256.5 83.5C256.5 82.1667 256.5 80.8333 256.5 79.5Z" fill="#FEFFFE"/>
<path opacity="0.01" fill-rule="evenodd" clip-rule="evenodd" d="M289.5 79.5C290.573 80.2506 290.74 81.2506 290 82.5C289.517 81.552 289.351 80.552 289.5 79.5Z" fill="#FEFFFE"/>
<path opacity="0.01" fill-rule="evenodd" clip-rule="evenodd" d="M341.5 79.5C342.525 79.8966 342.692 80.5632 342 81.5C341.536 80.9056 341.369 80.2389 341.5 79.5Z" fill="#FEFFFE"/>
<path opacity="0.01" fill-rule="evenodd" clip-rule="evenodd" d="M357.5 79.5C357.833 79.5 358.167 79.5 358.5 79.5C358.737 80.791 358.404 81.791 357.5 82.5C357.5 81.5 357.5 80.5 357.5 79.5Z" fill="#FEFFFE"/>
<path opacity="0.012" fill-rule="evenodd" clip-rule="evenodd" d="M78.5 79.5C79.8333 80.5 79.8333 81.5 78.5 82.5C78.5 81.5 78.5 80.5 78.5 79.5Z" fill="#1DD389"/>
<path opacity="0.01" fill-rule="evenodd" clip-rule="evenodd" d="M51.5 82.5C51.5 82.8333 51.5 83.1667 51.5 83.5C50.8333 83.5 50.5 83.8333 50.5 84.5C49.8333 84.5 49.1667 84.5 48.5 84.5C48.9731 83.0937 49.9731 82.427 51.5 82.5Z" fill="#05F12E"/>
<path opacity="0.012" fill-rule="evenodd" clip-rule="evenodd" d="M356.5 82.5C356.833 82.5 357.167 82.5 357.5 82.5C357.672 83.4916 357.338 84.1583 356.5 84.5C356.5 83.8333 356.5 83.1667 356.5 82.5Z" fill="#FEFFFE"/>
<path opacity="0.016" fill-rule="evenodd" clip-rule="evenodd" d="M1.5 82.5C1.83333 82.5 2.16667 82.5 2.5 82.5C2.16667 86.5 1.83333 86.5 1.5 82.5Z" fill="#07C93F"/>
<path opacity="0.01" fill-rule="evenodd" clip-rule="evenodd" d="M77.5 82.5C77.8333 82.5 78.1667 82.5 78.5 82.5C78.1667 85.1667 77.8333 85.1667 77.5 82.5Z" fill="#03E96A"/>
<path opacity="0.01" fill-rule="evenodd" clip-rule="evenodd" d="M216.5 85.5001C218.364 84.2073 220.364 84.2073 222.5 85.5001C220.78 85.7464 218.78 85.7464 216.5 85.5001Z" fill="#FEFFFE"/>
<path opacity="0.01" fill-rule="evenodd" clip-rule="evenodd" d="M288.5 88.5C288.343 87.1266 288.51 85.7932 289 84.5C289.765 86.0657 289.598 87.3991 288.5 88.5Z" fill="#FEFFFE"/>
<path opacity="0.01" fill-rule="evenodd" clip-rule="evenodd" d="M330.5 84.5C330.631 85.2389 330.464 85.9056 330 86.5C329.308 85.5632 329.475 84.8966 330.5 84.5Z" fill="#FEFFFE"/>
<path opacity="0.01" fill-rule="evenodd" clip-rule="evenodd" d="M355.5 84.5C355.833 84.5 356.167 84.5 356.5 84.5C356.737 85.791 356.404 86.791 355.5 87.5C355.5 86.5 355.5 85.5 355.5 84.5Z" fill="#FEFFFE"/>
<path opacity="0.012" fill-rule="evenodd" clip-rule="evenodd" d="M76.5 85.5C77.8333 86.1667 77.8333 86.8333 76.5 87.5C76.5 86.8333 76.5 86.1667 76.5 85.5Z" fill="#00AA54"/>
<path opacity="0.01" fill-rule="evenodd" clip-rule="evenodd" d="M209.5 86.5C210.167 86.5 210.833 86.5 211.5 86.5C210.452 88.9327 209.786 88.9327 209.5 86.5Z" fill="#FEFFFE"/>
<path opacity="0.01" fill-rule="evenodd" clip-rule="evenodd" d="M194.5 87.5C195.573 88.2506 195.74 89.2506 195 90.5C194.517 89.552 194.351 88.552 194.5 87.5Z" fill="#FEFFFE"/>
<path opacity="0.01" fill-rule="evenodd" clip-rule="evenodd" d="M354.5 87.5C354.833 87.5 355.167 87.5 355.5 87.5C355.672 88.4916 355.338 89.1583 354.5 89.5C354.5 88.8333 354.5 88.1667 354.5 87.5Z" fill="#FEFFFE"/>
<path opacity="0.012" fill-rule="evenodd" clip-rule="evenodd" d="M75.5 87.5C75.8333 87.5 76.1667 87.5 76.5 87.5C76.1667 90.1667 75.8333 90.1667 75.5 87.5Z" fill="#00C562"/>
<path opacity="0.01" fill-rule="evenodd" clip-rule="evenodd" d="M287.5 88.5C287.833 88.5 288.167 88.5 288.5 88.5C288.167 91.1667 287.833 91.1667 287.5 88.5Z" fill="#FEFFFE"/>
<path opacity="0.01" fill-rule="evenodd" clip-rule="evenodd" d="M311.5 91.5C311.351 90.448 311.517 89.448 312 88.5C313.786 90.0993 315.953 90.9326 318.5 91C316.19 91.4966 313.857 91.6633 311.5 91.5Z" fill="#FEFFFE"/>
<path opacity="0.01" fill-rule="evenodd" clip-rule="evenodd" d="M332.5 89.5C332.631 90.2389 332.464 90.9056 332 91.5C331.308 90.5632 331.475 89.8966 332.5 89.5Z" fill="#FEFFFE"/>
<path opacity="0.01" fill-rule="evenodd" clip-rule="evenodd" d="M353.5 89.5C353.833 89.5 354.167 89.5 354.5 89.5C354.737 90.791 354.404 91.791 353.5 92.5C353.5 91.5 353.5 90.5 353.5 89.5Z" fill="#FEFFFE"/>
<path opacity="0.012" fill-rule="evenodd" clip-rule="evenodd" d="M74.5 90.5C75.8333 91.1667 75.8333 91.8333 74.5 92.5C74.5 91.8333 74.5 91.1667 74.5 90.5Z" fill="#00C562"/>
<path opacity="0.01" fill-rule="evenodd" clip-rule="evenodd" d="M286.5 93.5C286.369 92.7611 286.536 92.0944 287 91.5C287.692 92.4368 287.525 93.1034 286.5 93.5Z" fill="#FEFFFE"/>
<path opacity="0.01" fill-rule="evenodd" clip-rule="evenodd" d="M320.5 92.5C321.634 94.9664 321.801 97.633 321 100.5C320.503 97.854 320.336 95.1873 320.5 92.5Z" fill="#FEFFFE"/>
<path opacity="0.01" fill-rule="evenodd" clip-rule="evenodd" d="M332.5 92.5C333.525 92.8966 333.692 93.5632 333 94.5C332.536 93.9056 332.369 93.2389 332.5 92.5Z" fill="#FEFFFE"/>
<path opacity="0.01" fill-rule="evenodd" clip-rule="evenodd" d="M352.5 92.5C352.833 92.5 353.167 92.5 353.5 92.5C353.167 95.1667 352.833 95.1667 352.5 92.5Z" fill="#FEFFFE"/>
<path opacity="0.01" fill-rule="evenodd" clip-rule="evenodd" d="M73.5 92.5C73.8333 92.5 74.1667 92.5 74.5 92.5C74.1667 95.1667 73.8333 95.1667 73.5 92.5Z" fill="#05FE72"/>
<path opacity="0.01" fill-rule="evenodd" clip-rule="evenodd" d="M286.5 93.5C285.833 94.1667 285.833 94.1667 286.5 93.5V93.5Z" fill="#FEFFFE"/>
<path opacity="0.01" fill-rule="evenodd" clip-rule="evenodd" d="M6.5 93.5C6.5 94.1667 6.5 94.8333 6.5 95.5C5.16667 94.8333 5.16667 94.1667 6.5 93.5Z" fill="#1C946E"/>
<path opacity="0.012" fill-rule="evenodd" clip-rule="evenodd" d="M284.5 94.5C284.833 94.5 285.167 94.5 285.5 94.5C285.315 95.1701 284.981 95.1701 284.5 94.5Z" fill="#FEFFFE"/>
<path opacity="0.01" fill-rule="evenodd" clip-rule="evenodd" d="M283.5 95.5C283.833 95.5 284.167 95.5 284.5 95.5C284.315 96.1701 283.981 96.1701 283.5 95.5Z" fill="#FEFFFE"/>
<path opacity="0.01" fill-rule="evenodd" clip-rule="evenodd" d="M351.5 95.5C352.621 97.0894 352.454 98.7561 351 100.5C350.517 99.552 350.351 98.552 350.5 97.5C351.338 97.1583 351.672 96.4916 351.5 95.5Z" fill="#FEFFFE"/>
<path opacity="0.01" fill-rule="evenodd" clip-rule="evenodd" d="M6.50003 95.5C6.83336 95.5 7.1667 95.5 7.50003 95.5C7.50003 96.1667 7.50003 96.8333 7.50003 97.5C6.66178 97.1583 6.32845 96.4916 6.50003 95.5Z" fill="#14E9D3"/>
<path opacity="0.01" fill-rule="evenodd" clip-rule="evenodd" d="M72.5 97.5C72.369 96.7611 72.5357 96.0944 73 95.5C73.6917 96.4368 73.525 97.1034 72.5 97.5Z" fill="#22A876"/>
<path opacity="0.01" fill-rule="evenodd" clip-rule="evenodd" d="M282.5 96.5C282.833 96.5 283.167 96.5 283.5 96.5C283.5 97.8333 282.833 98.5 281.5 98.5C281.5 98.1667 281.5 97.8333 281.5 97.5C282.167 97.5 282.5 97.1667 282.5 96.5Z" fill="#FEFFFE"/>
<path opacity="0.016" fill-rule="evenodd" clip-rule="evenodd" d="M7.50004 97.5C7.83337 97.5 8.16671 97.5 8.50004 97.5C8.50004 98.5 8.50004 99.5 8.50004 100.5C7.59607 99.791 7.26273 98.791 7.50004 97.5Z" fill="#1B5B3F"/>
<path opacity="0.01" fill-rule="evenodd" clip-rule="evenodd" d="M71.5 97.5C71.8333 97.5 72.1667 97.5 72.5 97.5C72.6716 98.4916 72.3382 99.1583 71.5 99.5C71.5 98.8333 71.5 98.1667 71.5 97.5Z" fill="#1DE948"/>
<path opacity="0.01" fill-rule="evenodd" clip-rule="evenodd" d="M280.5 98.5C280.833 98.5 281.167 98.5 281.5 98.5C281.315 99.1701 280.981 99.1701 280.5 98.5Z" fill="#FEFFFE"/>
<path opacity="0.012" fill-rule="evenodd" clip-rule="evenodd" d="M201.5 99.5C201.5 99.8333 201.5 100.167 201.5 100.5C200.83 100.019 200.83 99.6853 201.5 99.5Z" fill="#FEFFFE"/>
<path opacity="0.012" fill-rule="evenodd" clip-rule="evenodd" d="M221.5 99.5C222.043 99.56 222.376 99.8933 222.5 100.5C221.743 101.773 221.077 101.773 220.5 100.5C221.167 100.5 221.5 100.167 221.5 99.5Z" fill="#FEFFFE"/>
<path opacity="0.01" fill-rule="evenodd" clip-rule="evenodd" d="M258.5 99.5C259.167 99.5 259.5 99.8333 259.5 100.5C258.705 107.087 258.205 113.754 258 120.5C257.179 113.321 257.345 106.321 258.5 99.5Z" fill="#FEFFFE"/>
<path opacity="0.01" fill-rule="evenodd" clip-rule="evenodd" d="M279.5 99.5C279.833 99.5 280.167 99.5 280.5 99.5C280.315 100.17 279.981 100.17 279.5 99.5Z" fill="#FEFFFE"/>
<path opacity="0.01" fill-rule="evenodd" clip-rule="evenodd" d="M70.5 99.5C70.8333 99.5 71.1667 99.5 71.5 99.5C71.6716 100.492 71.3382 101.158 70.5 101.5C70.5 100.833 70.5 100.167 70.5 99.5Z" fill="#00E171"/>
<path opacity="0.01" fill-rule="evenodd" clip-rule="evenodd" d="M201.5 100.5C202.833 101.167 202.833 101.167 201.5 100.5V100.5Z" fill="#FEFFFE"/>
<path opacity="0.01" fill-rule="evenodd" clip-rule="evenodd" d="M277.5 101.5C277.5 101.167 277.5 100.833 277.5 100.5C278.167 100.5 278.833 100.5 279.5 100.5C279.158 101.338 278.492 101.672 277.5 101.5Z" fill="#FEFFFE"/>
<path opacity="0.01" fill-rule="evenodd" clip-rule="evenodd" d="M8.50003 100.5C8.83336 100.5 9.1667 100.5 9.50003 100.5C9.50003 101.167 9.50003 101.833 9.50003 102.5C8.66178 102.158 8.32845 101.492 8.50003 100.5Z" fill="#0EE134"/>
<path opacity="0.012" fill-rule="evenodd" clip-rule="evenodd" d="M277.5 101.5C276.833 102.167 276.833 102.167 277.5 101.5V101.5Z" fill="#FEFFFE"/>
<path opacity="0.01" fill-rule="evenodd" clip-rule="evenodd" d="M69.5 101.5C69.8333 101.5 70.1667 101.5 70.5 101.5C70.6716 102.492 70.3382 103.158 69.5 103.5C69.5 102.833 69.5 102.167 69.5 101.5Z" fill="#14E9D3"/>
<path opacity="0.01" fill-rule="evenodd" clip-rule="evenodd" d="M126.5 103.5C129.64 102.359 132.973 102.192 136.5 103C133.183 103.498 129.85 103.665 126.5 103.5Z" fill="#FEFFFE"/>
<path opacity="0.01" fill-rule="evenodd" clip-rule="evenodd" d="M152.5 103.5C155.304 102.362 158.304 102.195 161.5 103C158.518 103.498 155.518 103.665 152.5 103.5Z" fill="#FEFFFE"/>
<path opacity="0.01" fill-rule="evenodd" clip-rule="evenodd" d="M177.5 103.5C180.64 102.359 183.973 102.192 187.5 103C184.183 103.498 180.85 103.665 177.5 103.5Z" fill="#FEFFFE"/>
<path opacity="0.01" fill-rule="evenodd" clip-rule="evenodd" d="M224.5 103.5C227.304 102.362 230.304 102.195 233.5 103C230.518 103.498 227.518 103.665 224.5 103.5Z" fill="#FEFFFE"/>
<path opacity="0.01" fill-rule="evenodd" clip-rule="evenodd" d="M272.5 103.5C272.5 103.167 272.5 102.833 272.5 102.5C276.5 102.833 276.5 103.167 272.5 103.5Z" fill="#FEFFFE"/>
<path opacity="0.01" fill-rule="evenodd" clip-rule="evenodd" d="M313.5 103.5C313.5 103.167 313.5 102.833 313.5 102.5C320.167 102.833 320.167 103.167 313.5 103.5Z" fill="#FEFFFE"/>
<path opacity="0.01" fill-rule="evenodd" clip-rule="evenodd" d="M334.5 102.5C335.525 102.897 335.692 103.563 335 104.5C334.536 103.906 334.369 103.239 334.5 102.5Z" fill="#FEFFFE"/>
<path opacity="0.01" fill-rule="evenodd" clip-rule="evenodd" d="M9.50003 102.5C9.83336 102.5 10.1667 102.5 10.5 102.5C10.5 103.167 10.5 103.833 10.5 104.5C9.66178 104.158 9.32845 103.492 9.50003 102.5Z" fill="#1DE948"/>
<path opacity="0.01" fill-rule="evenodd" clip-rule="evenodd" d="M272.5 103.5C270.034 104.634 267.367 104.801 264.5 104C267.146 103.503 269.813 103.336 272.5 103.5Z" fill="#FEFFFE"/>
<path opacity="0.01" fill-rule="evenodd" clip-rule="evenodd" d="M313.5 103.5C313.103 104.525 312.437 104.692 311.5 104C312.094 103.536 312.761 103.369 313.5 103.5Z" fill="#FEFFFE"/>
<path opacity="0.012" fill-rule="evenodd" clip-rule="evenodd" d="M68.5 103.5C68.8333 103.5 69.1667 103.5 69.5 103.5C69.6716 104.492 69.3382 105.158 68.5 105.5C68.5 104.833 68.5 104.167 68.5 103.5Z" fill="#129B64"/>
<path opacity="0.01" fill-rule="evenodd" clip-rule="evenodd" d="M10.5 104.5C10.8333 104.5 11.1667 104.5 11.5 104.5C11.5 105.167 11.5 105.833 11.5 106.5C10.6618 106.158 10.3284 105.492 10.5 104.5Z" fill="#0EE134"/>
<path opacity="0.01" fill-rule="evenodd" clip-rule="evenodd" d="M67.5 105.5C67.8333 105.5 68.1667 105.5 68.5 105.5C68.6716 106.492 68.3382 107.158 67.5 107.5C67.5 106.833 67.5 106.167 67.5 105.5Z" fill="#128D72"/>
<path opacity="0.01" fill-rule="evenodd" clip-rule="evenodd" d="M11.5 106.5C11.8333 106.5 12.1667 106.5 12.5 106.5C12.5 107.167 12.5 107.833 12.5 108.5C11.6618 108.158 11.3284 107.492 11.5 106.5Z" fill="#0A9480"/>
<path opacity="0.012" fill-rule="evenodd" clip-rule="evenodd" d="M66.5 107.5C66.8333 107.5 67.1667 107.5 67.5 107.5C67.6716 108.492 67.3382 109.158 66.5 109.5C66.5 108.833 66.5 108.167 66.5 107.5Z" fill="#129B64"/>
<path opacity="0.01" fill-rule="evenodd" clip-rule="evenodd" d="M346.5 108.5C347.833 109.167 347.833 109.833 346.5 110.5C346.5 109.833 346.5 109.167 346.5 108.5Z" fill="#FEFFFE"/>
<path opacity="0.01" fill-rule="evenodd" clip-rule="evenodd" d="M12.5 108.5C12.8333 108.5 13.1667 108.5 13.5 108.5C13.5 109.167 13.5 109.833 13.5 110.5C12.6618 110.158 12.3284 109.492 12.5 108.5Z" fill="#0EE134"/>
<path opacity="0.01" fill-rule="evenodd" clip-rule="evenodd" d="M65.5 109.5C65.8333 109.5 66.1667 109.5 66.5 109.5C66.6716 110.492 66.3382 111.158 65.5 111.5C65.5 110.833 65.5 110.167 65.5 109.5Z" fill="#128D72"/>
<path opacity="0.01" fill-rule="evenodd" clip-rule="evenodd" d="M345.5 110.5C345.833 110.5 346.167 110.5 346.5 110.5C346.672 111.492 346.338 112.158 345.5 112.5C345.5 111.833 345.5 111.167 345.5 110.5Z" fill="#FEFFFE"/>
<path opacity="0.01" fill-rule="evenodd" clip-rule="evenodd" d="M13.5 110.5C13.8333 110.5 14.1667 110.5 14.5 110.5C14.5 111.167 14.5 111.833 14.5 112.5C13.6618 112.158 13.3284 111.492 13.5 110.5Z" fill="#1DE948"/>
<path opacity="0.012" fill-rule="evenodd" clip-rule="evenodd" d="M64.5 111.5C64.8333 111.5 65.1667 111.5 65.5 111.5C65.6716 112.492 65.3382 113.158 64.5 113.5C64.5 112.833 64.5 112.167 64.5 111.5Z" fill="#00C562"/>
<path opacity="0.01" fill-rule="evenodd" clip-rule="evenodd" d="M344.5 112.5C344.833 112.5 345.167 112.5 345.5 112.5C345.672 113.492 345.338 114.158 344.5 114.5C344.5 113.833 344.5 113.167 344.5 112.5Z" fill="#FEFFFE"/>
<path opacity="0.01" fill-rule="evenodd" clip-rule="evenodd" d="M14.5 112.5C14.8333 112.5 15.1667 112.5 15.5 112.5C15.1667 115.167 14.8333 115.167 14.5 112.5Z" fill="#0EE134"/>
<path opacity="0.01" fill-rule="evenodd" clip-rule="evenodd" d="M63.5 113.5C63.8333 113.5 64.1667 113.5 64.5 113.5C64.6716 114.492 64.3382 115.158 63.5 115.5C63.5 114.833 63.5 114.167 63.5 113.5Z" fill="#20E1C4"/>
<path opacity="0.01" fill-rule="evenodd" clip-rule="evenodd" d="M322.5 114.5C323.613 115.946 323.78 117.613 323 119.5C322.506 117.866 322.34 116.199 322.5 114.5Z" fill="#FEFFFE"/>
<path opacity="0.012" fill-rule="evenodd" clip-rule="evenodd" d="M343.5 114.5C343.833 114.5 344.167 114.5 344.5 114.5C344.315 115.17 343.981 115.17 343.5 114.5Z" fill="#FEFFFE"/>
<path opacity="0.01" fill-rule="evenodd" clip-rule="evenodd" d="M342.5 115.5C342.833 115.5 343.167 115.5 343.5 115.5C343.315 116.17 342.981 116.17 342.5 115.5Z" fill="#FEFFFE"/>
<path opacity="0.01" fill-rule="evenodd" clip-rule="evenodd" d="M62.5 115.5C62.8333 115.5 63.1667 115.5 63.5 115.5C63.6716 116.492 63.3382 117.158 62.5 117.5C62.5 116.833 62.5 116.167 62.5 115.5Z" fill="#00E171"/>
<path opacity="0.01" fill-rule="evenodd" clip-rule="evenodd" d="M341.5 116.5C341.833 116.5 342.167 116.5 342.5 116.5C342.5 117.833 341.833 118.5 340.5 118.5C340.5 118.167 340.5 117.833 340.5 117.5C341.167 117.5 341.5 117.167 341.5 116.5Z" fill="#FEFFFE"/>
<path opacity="0.01" fill-rule="evenodd" clip-rule="evenodd" d="M17.5001 115.5C17.3285 116.492 17.6619 117.158 18.5001 117.5C18.5001 118.167 18.5001 118.833 18.5001 119.5C16.4806 118.462 16.1473 117.128 17.5001 115.5Z" fill="#2ECCA0"/>
<path opacity="0.01" fill-rule="evenodd" clip-rule="evenodd" d="M61.5 117.5C61.8333 117.5 62.1667 117.5 62.5 117.5C62.6716 118.492 62.3382 119.158 61.5 119.5C61.5 118.833 61.5 118.167 61.5 117.5Z" fill="#04E926"/>
<path opacity="0.01" fill-rule="evenodd" clip-rule="evenodd" d="M339.5 118.5C339.833 118.5 340.167 118.5 340.5 118.5C340.315 119.17 339.981 119.17 339.5 118.5Z" fill="#FEFFFE"/>
<path opacity="0.01" fill-rule="evenodd" clip-rule="evenodd" d="M337.5 120.5C337.5 120.167 337.5 119.833 337.5 119.5C338.167 119.5 338.833 119.5 339.5 119.5C339.158 120.338 338.492 120.672 337.5 120.5Z" fill="#FEFFFE"/>
<path opacity="0.01" fill-rule="evenodd" clip-rule="evenodd" d="M18.5 119.5C18.8333 119.5 19.1667 119.5 19.5 119.5C19.5 120.167 19.5 120.833 19.5 121.5C18.6618 121.158 18.3284 120.492 18.5 119.5Z" fill="#20E1C4"/>
<path opacity="0.01" fill-rule="evenodd" clip-rule="evenodd" d="M60.5 119.5C60.8333 119.5 61.1667 119.5 61.5 119.5C61.6716 120.492 61.3382 121.158 60.5 121.5C60.5 120.833 60.5 120.167 60.5 119.5Z" fill="#04E926"/>
<path opacity="0.01" fill-rule="evenodd" clip-rule="evenodd" d="M335.5 121.5C335.5 121.167 335.5 120.833 335.5 120.5C336.167 120.5 336.833 120.5 337.5 120.5C337.158 121.338 336.492 121.672 335.5 121.5Z" fill="#FEFFFE"/>
<path opacity="0.016" fill-rule="evenodd" clip-rule="evenodd" d="M19.5 121.5C19.8333 121.5 20.1667 121.5 20.5 121.5C20.3147 122.17 19.9813 122.17 19.5 121.5Z" fill="#00BF7F"/>
<path opacity="0.01" fill-rule="evenodd" clip-rule="evenodd" d="M245.5 122.5C248.64 121.359 251.973 121.192 255.5 122C252.183 122.498 248.85 122.665 245.5 122.5Z" fill="#FEFFFE"/>
<path opacity="0.01" fill-rule="evenodd" clip-rule="evenodd" d="M335.5 121.5C332.36 122.641 329.027 122.808 325.5 122C328.817 121.502 332.15 121.335 335.5 121.5Z" fill="#FEFFFE"/>
<path opacity="0.01" fill-rule="evenodd" clip-rule="evenodd" d="M59.5 121.5C59.8333 121.5 60.1667 121.5 60.5 121.5C60.573 123.027 59.9063 124.027 58.5 124.5C58.5 123.833 58.5 123.167 58.5 122.5C59.1667 122.5 59.5 122.167 59.5 121.5Z" fill="#174225"/>
<path opacity="0.01" fill-rule="evenodd" clip-rule="evenodd" d="M21.5001 123.5C22.1668 123.5 22.5001 123.833 22.5001 124.5C22.5001 125.167 22.5001 125.833 22.5001 126.5C20.6183 125.779 20.2849 124.779 21.5001 123.5Z" fill="#1E6944"/>
<path opacity="0.01" fill-rule="evenodd" clip-rule="evenodd" d="M57.5 124.5C57.8333 124.5 58.1667 124.5 58.5 124.5C58.6716 125.492 58.3382 126.158 57.5 126.5C57.5 125.833 57.5 125.167 57.5 124.5Z" fill="#128D72"/>
<path opacity="0.01" fill-rule="evenodd" clip-rule="evenodd" d="M22.5 126.5C22.8333 126.5 23.1667 126.5 23.5 126.5C23.1667 129.167 22.8333 129.167 22.5 126.5Z" fill="#36FEC9"/>
<path opacity="0.01" fill-rule="evenodd" clip-rule="evenodd" d="M56.5 126.5C56.8333 126.5 57.1667 126.5 57.5 126.5C57.1667 129.167 56.8333 129.167 56.5 126.5Z" fill="#20E1C4"/>
<path opacity="0.01" fill-rule="evenodd" clip-rule="evenodd" d="M25.5 129.5C25.5 130.167 25.5 130.833 25.5 131.5C24.1667 130.833 24.1667 130.167 25.5 129.5Z" fill="#00E171"/>
<path opacity="0.016" fill-rule="evenodd" clip-rule="evenodd" d="M25.5 131.5C25.8333 131.5 26.1667 131.5 26.5 131.5C26.3147 132.17 25.9813 132.17 25.5 131.5Z" fill="#00BF7F"/>
<path opacity="0.012" fill-rule="evenodd" clip-rule="evenodd" d="M27.5 134.5C26.8333 133.167 26.8333 133.167 27.5 134.5V134.5Z" fill="#00AA54"/>
<path opacity="0.01" fill-rule="evenodd" clip-rule="evenodd" d="M52.5 133.5C53.8333 134.167 53.8333 134.833 52.5 135.5C52.5 134.833 52.5 134.167 52.5 133.5Z" fill="#1DE948"/>
<path opacity="0.01" fill-rule="evenodd" clip-rule="evenodd" d="M27.5 134.5C27.8333 134.5 28.1667 134.5 28.5 134.5C28.1667 137.167 27.8333 137.167 27.5 134.5Z" fill="#0EE134"/>
<path opacity="0.012" fill-rule="evenodd" clip-rule="evenodd" d="M51.5 135.5C51.8333 135.5 52.1667 135.5 52.5 135.5C52.3147 136.17 51.9813 136.17 51.5 135.5Z" fill="#00AA54"/>
<path opacity="0.01" fill-rule="evenodd" clip-rule="evenodd" d="M50.5 136.5C50.8333 136.5 51.1667 136.5 51.5 136.5C51.6716 137.492 51.3382 138.158 50.5 138.5C50.5 137.833 50.5 137.167 50.5 136.5Z" fill="#1BD282"/>
<path opacity="0.01" fill-rule="evenodd" clip-rule="evenodd" d="M30.5001 137.5C30.6311 138.239 30.4644 138.906 30.0001 139.5C29.3084 138.563 29.4751 137.897 30.5001 137.5Z" fill="#0EE134"/>
<path opacity="0.01" fill-rule="evenodd" clip-rule="evenodd" d="M49.5 138.5C49.8333 138.5 50.1667 138.5 50.5 138.5C50.6716 139.492 50.3382 140.158 49.5 140.5C49.5 139.833 49.5 139.167 49.5 138.5Z" fill="#04E926"/>
<path opacity="0.012" fill-rule="evenodd" clip-rule="evenodd" d="M48.5 140.5C48.8333 140.5 49.1667 140.5 49.5 140.5C49.3147 141.17 48.9813 141.17 48.5 140.5Z" fill="#00FF54"/>
<path opacity="0.01" fill-rule="evenodd" clip-rule="evenodd" d="M32.5001 140.5C32.6311 141.239 32.4644 141.906 32.0001 142.5C31.3084 141.563 31.4751 140.897 32.5001 140.5Z" fill="#20E1C4"/>
<path opacity="0.01" fill-rule="evenodd" clip-rule="evenodd" d="M47.5 141.5C47.8333 141.5 48.1667 141.5 48.5 141.5C48.6716 142.492 48.3382 143.158 47.5 143.5C47.5 142.833 47.5 142.167 47.5 141.5Z" fill="#128D72"/>
<path opacity="0.016" fill-rule="evenodd" clip-rule="evenodd" d="M46.5 143.5C46.8333 143.5 47.1667 143.5 47.5 143.5C47.3147 144.17 46.9813 144.17 46.5 143.5Z" fill="#00BF7F"/>
<path opacity="0.01" fill-rule="evenodd" clip-rule="evenodd" d="M34.5001 143.5C34.6311 144.239 34.4644 144.906 34.0001 145.5C33.3084 144.563 33.4751 143.897 34.5001 143.5Z" fill="#0EE134"/>
<path opacity="0.01" fill-rule="evenodd" clip-rule="evenodd" d="M45.5 144.5C45.8333 144.5 46.1667 144.5 46.5 144.5C46.6716 145.492 46.3382 146.158 45.5 146.5C45.5 145.833 45.5 145.167 45.5 144.5Z" fill="#13FE64"/>
<path opacity="0.01" fill-rule="evenodd" clip-rule="evenodd" d="M36.5 146.5C36.5 147.167 36.5 147.833 36.5 148.5C35.1667 147.833 35.1667 147.167 36.5 146.5Z" fill="#1D4E21"/>
<path opacity="0.01" fill-rule="evenodd" clip-rule="evenodd" d="M44.5 146.5C44.8333 146.5 45.1667 146.5 45.5 146.5C45.6716 147.492 45.3382 148.158 44.5 148.5C44.5 147.833 44.5 147.167 44.5 146.5Z" fill="#1D4E21"/>
<path opacity="0.01" fill-rule="evenodd" clip-rule="evenodd" d="M36.5 148.5C37.1667 148.5 37.5 148.833 37.5 149.5C37.1667 149.167 36.8333 148.833 36.5 148.5Z" fill="#00FF7F"/>
<path opacity="0.012" fill-rule="evenodd" clip-rule="evenodd" d="M43.5 148.5C43.8333 148.5 44.1667 148.5 44.5 148.5C44.5 148.833 44.5 149.167 44.5 149.5C44.1667 149.167 43.8333 148.833 43.5 148.5Z" fill="#00AA54"/>
</g>
<defs>
<clipPath id="clip0_226_104">
<rect width="366" height="150" fill="white"/>
</clipPath>
</defs>
</svg>
